<?xml version="1.0" encoding="UTF-8"?>
<!-- Generator: Adobe Illustrator 28.2.0, SVG Export Plug-In . SVG Version: 6.00 Build 0)  -->
<svg xmlns="http://www.w3.org/2000/svg" xmlns:xlink="http://www.w3.org/1999/xlink" version="1.1" id="Layer_1" x="0px" y="0px" viewBox="0 0 250 52.3" style="enable-background:new 0 0 250 52.3;" xml:space="preserve">
<style type="text/css">
	.st0{fill:#111111;}
</style>
<path class="st0" d="M50.7,2.4C44.6-1.4,36.6-0.5,29.4,4C22.3-0.5,14.3-1.4,8.2,2.4C-1.4,8.4-2.6,23.9,5.6,37  c6,9.7,15.5,15.3,23.9,15.2c8.4,0.1,17.8-5.6,23.9-15.2C61.5,23.9,60.4,8.4,50.7,2.4z M10,34.3c-1.7-2.7-3-5.6-3.8-8.7  c-0.7-2.7-1-5.4-0.8-8.2c0.4-4.8,2.3-8.6,5.5-10.6s7.5-2.1,12-0.3c0.7,0.3,1.3,0.6,2,0.9c-2.5,2.3-4.7,4.9-6.5,7.8  c-5,8-6.5,16.8-4.8,23.9C12.3,37.6,11.1,36,10,34.3L10,34.3z M52.7,25.6c-0.8,3.1-2.1,6-3.8,8.7c-1.1,1.7-2.3,3.4-3.7,4.8  c1.5-6.3,0.5-14.1-3.3-21.4c-0.2-0.5-0.8-0.7-1.3-0.4c0,0-0.1,0-0.1,0.1l-11.9,7.4c-0.5,0.3-0.6,0.9-0.3,1.3c0,0,0,0,0,0l1.7,2.8  c0.3,0.5,0.9,0.6,1.3,0.3c0,0,0,0,0,0l7.7-4.8c0.2,0.7,0.5,1.5,0.7,2.2c0.7,2.7,1,5.4,0.8,8.1c-0.4,4.8-2.3,8.6-5.5,10.6  c-1.7,1-3.6,1.6-5.5,1.6h-0.2c-1.9,0-3.8-0.6-5.5-1.6c-3.2-2-5.2-5.8-5.6-10.6c-0.2-2.7,0.1-5.5,0.8-8.2c1.7-6.1,5.1-11.7,9.9-15.9  c2.1-1.8,4.4-3.3,7-4.3c4.5-1.8,8.8-1.7,12,0.3s5.2,5.8,5.5,10.6C53.7,20.2,53.4,23,52.7,25.6z M113.9,19.8  c-6.1-0.1-11.2,4.8-11.3,10.9c0,0,0,0.1,0,0.1c0,6.2,5,10.9,11.3,10.9s11.3-4.8,11.3-10.9c0-6.1-5-11.1-11.2-11.1  C114,19.8,114,19.8,113.9,19.8z M113.9,36.1c-2.9,0.1-5.3-2.2-5.3-5.1c-0.1-2.9,2.2-5.3,5.1-5.3c2.9-0.1,5.3,2.2,5.3,5.1  c0,0.1,0,0.1,0,0.2c0,2.8-2.2,5.1-5,5.2C114,36.1,114,36.1,113.9,36.1z M139.3,11.3h-11.5c-0.5,0-0.9,0.4-0.9,0.9c0,0,0,0,0,0v28  c0,0.5,0.4,1,0.9,1c0,0,0,0,0.1,0h11.5c9.2,0,15.6-6.1,15.6-15S148.5,11.3,139.3,11.3z M139.6,35.3h-6.3V17.2h6.3  c5.1,0,8.6,3.8,8.6,9C148.2,31.4,144.7,35.3,139.6,35.3z M177.7,20.4h-4.3c-0.5,0-0.9,0.4-0.9,0.9v1.3c-1-1.6-3.2-2.8-6-2.8  c-5.4,0-10.4,4.2-10.4,11s5,11,10.4,11c2.8,0,5-1.2,6-2.8v1.3c0,0.5,0.4,0.9,0.9,0.9h4.3c0.5,0,0.9-0.4,0.9-0.9c0,0,0,0,0,0V21.4  C178.7,20.9,178.3,20.5,177.7,20.4C177.7,20.4,177.7,20.4,177.7,20.4L177.7,20.4z M167.7,36.1c-2.9,0-5-2.2-5-5.2s2.1-5.2,5-5.2  c2.9,0,5,2.2,5,5.2S170.6,36.1,167.7,36.1z M201.9,11.3h-4.3c-0.5,0-0.9,0.4-0.9,0.9c0,0,0,0,0,0v10.3c-1-1.5-3.2-2.7-6.1-2.7  c-5.3,0-10.3,4.2-10.3,11s5,11,10.4,11c2.8,0,4.9-1.2,6-2.8v1.3c0,0.5,0.4,0.9,0.9,0.9h4.3c0.5,0,0.9-0.4,0.9-0.9c0,0,0,0,0,0V12.2  C202.9,11.7,202.5,11.3,201.9,11.3C202,11.3,202,11.3,201.9,11.3L201.9,11.3z M191.9,36.1c-2.9,0-5-2.2-5-5.3s2.1-5.3,5-5.3  c2.8,0,5,2.2,5,5.3S194.8,36.2,191.9,36.1L191.9,36.1z M226.2,11.3h-4.3c-0.5,0-0.9,0.4-0.9,0.9c0,0,0,0,0,0v10.3  c-1-1.5-3.2-2.7-6.1-2.7c-5.3,0-10.3,4.2-10.3,11c0,6.7,5,11,10.4,11c2.8,0,4.9-1.2,6-2.8v1.3c0,0.5,0.4,0.9,0.9,0.9h4.3  c0.5,0,0.9-0.4,0.9-0.8c0,0,0,0,0,0V12.2C227.1,11.7,226.7,11.3,226.2,11.3C226.2,11.3,226.2,11.3,226.2,11.3L226.2,11.3z   M216.1,36.1c-2.9,0-5-2.2-5-5.3s2.1-5.3,5-5.3c2.8,0,5,2.2,5,5.3S219,36.1,216.1,36.1L216.1,36.1z M249.8,21.9L243.4,44  c-1.2,3.9-4,6.3-8.3,6.3c-1.8,0.1-3.6-0.4-5.2-1.2c-0.8-0.5-1.5-0.9-1.5-1.6c0-0.4,0.1-0.7,0.4-1l1.3-1.9c0.4-0.5,0.6-0.7,1-0.7  c0.3,0,0.6,0.1,0.8,0.3c0.8,0.6,1.7,0.9,2.7,1c1.3,0,2.3-0.4,2.9-2l0.6-1.8h-2.6c-0.5,0-1-0.4-1.1-0.9l-5.7-18.5  c-0.2-0.7,0-1.5,1.1-1.5h4.5c0.6,0,0.9,0.2,1.2,1l4.3,14.9l4-14.9c0.1-0.6,0.6-1,1.1-1h4.3C249.8,20.4,250.1,21,249.8,21.9  L249.8,21.9z M101,28.4v11.8c0,0.5-0.4,1-0.9,1c0,0,0,0,0,0h-3.6c-0.5,0-1-0.4-1-0.9c0,0,0,0,0,0v-3.1c-2.3,2.9-6.2,4.7-10.6,4.7  c-8.4,0-14.9-6.3-14.9-15.2c0-9.3,7-15.7,15.9-15.7c6.6,0,11.8,2.8,14.2,8.5c0.1,0.2,0.1,0.3,0.1,0.5c0,0.3-0.2,0.5-0.7,0.7  l-4.2,1.6c-0.3,0.1-0.5,0.1-0.8,0c-0.2-0.1-0.4-0.3-0.5-0.6c-1.5-2.8-4.1-4.8-8.2-4.8c-5.3,0-9.1,4.1-9.1,9.5c0,5.2,3.2,9.5,9.3,9.5  c3.2,0,5.7-1.5,6.9-3.1h-3.8c-0.5,0-1-0.4-1-0.9c0,0,0,0,0,0v-3.2c0-0.5,0.4-1,0.9-1c0,0,0,0,0,0h11C100.6,27.5,101,27.9,101,28.4  C101,28.4,101,28.4,101,28.4L101,28.4z"></path>
</svg>
