<?xml version="1.0" encoding="UTF-8"?>
<!-- Generator: Adobe Illustrator 28.2.0, SVG Export Plug-In . SVG Version: 6.00 Build 0)  -->
<svg xmlns="http://www.w3.org/2000/svg" xmlns:xlink="http://www.w3.org/1999/xlink" version="1.1" id="Layer_1" x="0px" y="0px" viewBox="0 0 250 78.1" style="enable-background:new 0 0 250 78.1;" xml:space="preserve">
<g>
	<g>
		<path id="Shape_17_" d="M244.1,17.7c2.4,0,4.5,1.4,5.5,3.6c0.9,2.2,0.4,4.8-1.2,6.4c-1.7,1.7-4.2,2.2-6.4,1.2s-3.6-3.1-3.6-5.5    c0-1.6,0.6-3.1,1.8-4.1C241.1,18.3,242.5,17.7,244.1,17.7 M244.2,18.7c-2-0.1-3.7,1.1-4.5,2.9c-0.8,1.8-0.4,3.9,0.9,5.3    c1.3,1.4,3.4,1.9,5.3,1.1c1.9-0.7,3-2.5,3-4.4C248.8,21,246.8,18.8,244.2,18.7 M241.9,20.1h2.6c1.6,0,2.4,0.6,2.4,2    c0,0.5-0.1,0.9-0.4,1.3c-0.3,0.4-0.8,0.6-1.3,0.6l2,3h-1.3l-2-3h-0.8v3h-1V20.1L241.9,20.1z M243,23h1.2c1,0,1.6-0.3,1.6-1    c0-0.7-0.5-0.9-1.2-0.9H243V23z"></path>
		<path id="Shape_16_" d="M-0.1,60.9V1.7h23.8c12.3,0,19.6,7.6,19.6,18.4S36,38.3,23.7,38.3H11.2v22.5C11.2,60.9-0.1,60.9-0.1,60.9z     M11.2,28.9h12c6.6,0,9.3-4.2,9.3-9s-2.7-9-9.3-9h-12V28.9z"></path>
		<path id="Shape_15_" d="M42,39.6c0-13,7.4-22,20.2-22c5.3,0,9.9,2.2,12.4,5.5v-4.8H85v42.6H74.6v-5c-2.1,3.4-6.9,5.7-12.3,5.7    C49.5,61.5,42,52.6,42,39.6 M75.3,39.6c0-7.9-4.5-13-11.6-13c-6.8,0-11.4,5.2-11.4,13s4.5,13,11.5,13    C70.8,52.6,75.4,47.4,75.3,39.6"></path>
		<path id="Shape_14_" d="M121.8,18.3h10.4v45c0,8.9-6.4,14.9-16,14.9h-21v-8.3h19.6c4.1,0,7.1-3.1,7.1-7.6v-6.1    c-2.1,3.3-7,5.4-12.3,5.4c-12.8,0-20.3-9-20.3-22s7.2-21.9,19.9-21.9c5.4,0,10,2.2,12.4,5.5V18.3z M122.6,39.6    c0-7.9-4.5-13-11.6-13c-7,0-11.5,5.2-11.5,13s4.4,13,11.4,13C117.9,52.6,122.6,47.4,122.6,39.6"></path>
		<path id="Shape_13_" d="M177.7,46.6c-1.7,9.1-9.5,14.9-20.1,14.9c-14,0-21.7-11-21.7-22.1s6.9-21.8,20.9-21.8    c14.3,0,20.7,10.4,20.7,20.6c0,1.4-0.1,2.7-0.2,3.5h-31.4c0.8,6.8,5.2,11.3,11.8,11.3c5.4,0,8.8-2.2,9.9-6.3    C167.6,46.6,177.7,46.6,177.7,46.6z M146.2,34.8h21c-0.4-5.4-4.1-9.5-10.3-9.5C151,25.3,147.3,28.4,146.2,34.8"></path>
		<rect id="Rectangle_2_" x="182.1" width="10.3" height="60.9"></rect>
		<polygon id="Path_8_" points="235.8,18.3 220.9,58.8 214.3,78.1 204.4,78.1 210.4,60.9 194.9,18.3 205.4,18.3 215.3,47.5     225.1,18.3   "></polygon>
	</g>
</g>
</svg>
