<?xml version="1.0" encoding="UTF-8"?>
<!-- Generator: Adobe Illustrator 28.2.0, SVG Export Plug-In . SVG Version: 6.00 Build 0)  -->
<svg xmlns="http://www.w3.org/2000/svg" xmlns:xlink="http://www.w3.org/1999/xlink" version="1.1" id="Layer_1" x="0px" y="0px" viewBox="0 0 250 69.9" style="enable-background:new 0 0 250 69.9;" xml:space="preserve">
<g>
	<path d="M35.1,7.7c-14.9,0-27.2,12-27.2,27.2S20,62,35.1,62s27.2-12,27.2-27.2l0,0C62.3,20,50,7.7,35.1,7.7z M27.9,11.5   c4.8-1.4,10.1-1.4,14.9,0c-1.4,1-2.6,2.6-3.4,4.3c-1,3.1,0,6,1,8.4v0.2c0.5,1.4,0.7,3.4-0.7,4.6c-0.5-0.5-1.2-1-1.9-1.2   c0.2-3.1-1.4-5.8-5-7.2h-0.2c-2.2-1-4.1-1.9-5.3-3.8C26.4,14.9,26.9,13,27.9,11.5L27.9,11.5z M38.9,34.9c0,2.2-1.7,3.8-3.8,3.8   c-2.2,0-3.8-1.9-3.8-3.8c0-1.9,1.7-3.8,3.8-3.8C37.3,31,38.9,32.7,38.9,34.9z M23.6,13.5c-0.2,1.7,0,3.6,1,5.3   c1.4,2.9,4.3,4.1,6.7,5.3l0.2,0.2c1.4,0.7,2.9,1.7,2.9,3.6c-0.7,0-1.4,0.2-2.2,0.5c-1.9-2.4-5.3-3.1-8.7-1.7h-0.2   c-2.4,1-4.3,1.4-6.2,1c-1.7-0.5-2.9-1.9-3.6-3.6C15.6,19.5,19.2,15.6,23.6,13.5L23.6,13.5z M11.8,42.1c-1.4-4.6-1.4-9.6,0-14.2   c1,1.2,2.4,2.2,4.1,2.9c3.1,1,6,0,8.7-1h0.2c1.4-0.5,3.6-0.7,4.8,0.7c-0.5,0.5-0.7,1.2-1.2,1.9c-3.1-0.2-6,1.4-7.5,4.8h-0.2   c-1,2.2-1.9,4.1-3.8,5C15.4,42.8,13.5,42.8,11.8,42.1L11.8,42.1z M23.3,56.2c-4.3-2.4-7.7-6-9.9-10.1c0.5,0,0.7,0,1.2,0   c1.4,0,2.6-0.2,3.8-1c2.9-1.4,4.3-4.1,5.3-6.5l0.2-0.2c0.7-1.4,1.9-3.1,4.1-2.9c0,0.7,0.2,1.4,0.5,2.2c-2.4,1.9-3.1,5.3-1.9,8.7   v0.2c1,2.2,1.7,4.1,1,6.2C26.9,55,25,56,23.6,56.5L23.3,56.2z M42.3,58.2c-4.8,1.4-10.1,1.4-14.9,0c1.4-1,2.6-2.6,3.4-4.3   c1-3.1,0-6-1-8.4v-0.2c-0.5-1.4-1-3.4,0.7-4.8c0.5,0.5,1.2,1,1.9,1.2c-0.2,3.1,1.4,5.8,5,7.5l0.2,0.2c2.2,1,4.1,1.9,5,3.8   C43.8,54.8,43.3,56.7,42.3,58.2C42.5,57.9,42.5,57.9,42.3,58.2z M46.6,56.2c0.2-1.7,0-3.6-1-5c-1.4-2.9-4.3-4.1-6.7-5.3l-0.2-0.2   c-1.4-0.7-3.1-1.9-2.9-3.8c0.7,0,1.4-0.2,2.2-0.5c1.9,2.4,5.3,3.1,8.9,1.9h0.2c2.4-1,4.3-1.4,6.2-1c1.7,0.5,2.9,1.9,3.6,3.4   C54.6,50.2,51,53.8,46.6,56.2L46.6,56.2z M59.4,34.9c0,2.4-0.2,4.8-1,7c-1-1.2-2.4-2.2-4.1-2.6c-3.1-1-6,0-8.4,1h-0.2   c-1.4,0.5-3.6,0.7-5-0.7c0.5-0.5,0.7-1.2,1.2-1.7c0.2,0,0.5,0,0.7,0c2.9,0,5.3-1.7,6.7-4.8l0.2-0.2c1-2.2,1.9-4.1,3.8-5   c1.7-0.7,3.6-0.7,5,0C59.1,30,59.4,32.5,59.4,34.9z M51.7,24.5c-2.9,1.4-4.3,4.1-5.3,6.5l-0.2,0.2c-0.7,1.4-1.9,3.1-4.1,2.9   c0-0.7-0.2-1.4-0.5-2.2c2.4-1.9,3.1-5.3,1.9-8.7v-0.2c-1-2.2-1.7-4.1-1-6.3c0.7-2.2,2.6-3.1,4.1-3.6h0.2c4.3,2.4,7.7,6,9.9,10.3   C55,23.6,53.4,23.8,51.7,24.5z"></path>
	<path d="M35.1,0.2c-19,0-34.4,15.4-34.4,34.6s15.4,34.4,34.6,34.4c19,0,34.4-15.4,34.4-34.4C69.5,15.9,54.1,0.2,35.1,0.2L35.1,0.2z    M35.1,64.9c-16.6,0-30.3-13.5-30.3-30s13.5-30,30-30s30.3,13.5,30.3,30l0,0C65.1,51.4,51.7,64.9,35.1,64.9z"></path>
	<path d="M63.7,6.5C60.6,3.1,56.2,0.7,52.6,0c-0.2,0-0.5,0-0.5,0.5c0,0.2,0,0.5,0.2,0.5c7.5,3.6,13.5,9.6,16.8,17.1   c0,0.2,0.5,0.2,0.7,0.2s0.2-0.2,0.2-0.5C69.2,13.7,67.1,9.6,63.7,6.5z"></path>
	<path d="M17.8,68.7C10.3,65.1,4.3,59.1,1,51.7c0-0.2-0.5-0.2-0.7-0.2C0,51.7,0,51.9,0,52.2c0.7,3.8,3.1,7.9,6.3,11.3   c3.4,3.4,7.5,5.8,11.1,6.5l0,0c0.2,0,0.5-0.2,0.5-0.5C18,69,17.8,69,17.8,68.7z"></path>
	<path d="M97.4,21.2H84.6c-0.5,0-0.7,0.2-0.7,0.7v26.2c0,0.5,0.2,0.7,0.7,0.7h2.6c0.5,0,0.7-0.2,0.7-0.7V37h8.2   c0.5,0,0.7-0.2,0.7-0.7v-2.6c0-0.5-0.2-0.7-0.7-0.7H88v-7.7h9.4c0.5,0,0.7-0.2,0.7-0.7v-2.6C98.1,21.4,97.8,21.2,97.4,21.2   L97.4,21.2z"></path>
	<path d="M117.1,44.7h-9.4V21.9c0-0.5-0.2-0.7-0.7-0.7h-2.6c-0.5,0-0.7,0.2-0.7,0.7l0,0v26.2c0,0.5,0.2,0.7,0.7,0.7h12.7   c0.5,0,0.7-0.2,0.7-0.7v-2.6C117.8,45.2,117.5,44.7,117.1,44.7L117.1,44.7z"></path>
	<path d="M134.9,20.9H132c-0.2,0-0.5,0.2-0.7,0.5L125.5,32l-5.8-10.6c-0.2-0.2-0.5-0.5-0.7-0.5h-2.9c-0.5,0-0.7,0.2-0.7,0.7   c0,0.2,0,0.2,0,0.2l7.9,14.7v11.3c0,0.5,0.2,0.7,0.7,0.7h2.6c0.5,0,0.7-0.2,0.7-0.7V36.8l7.9-14.9c0.2-0.5,0-0.7-0.2-1   C135.1,21.2,134.9,20.9,134.9,20.9z"></path>
	<path d="M249.3,44.7h-9.4V21.9c0-0.5-0.2-0.7-0.7-0.7h-2.6c-0.5,0-0.7,0.2-0.7,0.7v26.2c0,0.5,0.2,0.7,0.7,0.7h12.7   c0.5,0,0.7-0.2,0.7-0.7v-2.6C250,45.2,249.8,44.7,249.3,44.7z"></path>
	<path d="M188.5,21.2h-2.6c-0.5,0-0.7,0.2-0.7,0.7v11.1H176V21.9c0-0.5-0.2-0.7-0.7-0.7h-2.6c-0.5,0-0.7,0.2-0.7,0.7v26.2   c0,0.5,0.2,0.7,0.7,0.7h2.6c0.5,0,0.7-0.2,0.7-0.7V37h9.1v11.1c0,0.5,0.2,0.7,0.7,0.7h2.6c0.5,0,0.7-0.2,0.7-0.7V21.9   C189.2,21.4,188.7,21.2,188.5,21.2L188.5,21.2z"></path>
	<path d="M208.9,21.2h-13c-0.5,0-0.7,0.2-0.7,0.7v26.2c0,0.5,0.2,0.7,0.7,0.7h13c0.5,0,0.7-0.2,0.7-0.7v-2.6c0-0.5-0.2-0.7-0.7-0.7   h-9.6v-7.9h8.4c0.5,0,0.7-0.2,0.7-0.7v-2.6c0-0.5-0.2-0.7-0.7-0.7h-8.4v-7.5h9.6c0.5,0,0.7-0.2,0.7-0.7v-2.6   C209.6,21.4,209.4,21.2,208.9,21.2z"></path>
	<path d="M229.3,21.2h-13c-0.5,0-0.7,0.2-0.7,0.7v26.2c0,0.5,0.2,0.7,0.7,0.7h13c0.5,0,0.7-0.2,0.7-0.7v-2.6c0-0.5-0.2-0.7-0.7-0.7   h-9.6v-7.9h8.4c0.5,0,0.7-0.2,0.7-0.7v-2.6c0-0.5-0.2-0.7-0.7-0.7h-8.4v-7.5h9.6c0.5,0,0.7-0.2,0.7-0.7v-2.6   C230,21.4,229.6,21.2,229.3,21.2z"></path>
	<path d="M166.6,21.2h-2.9c-0.2,0-0.5,0.2-0.5,0.5l-4.3,18.5l-4.3-18.5c0-0.2-0.2-0.5-0.5-0.5h-2.6c-0.2,0-0.5,0.2-0.5,0.5   l-4.3,18.5l-4.3-18.5c0-0.2-0.2-0.5-0.5-0.5h-2.9c-0.2,0-0.5,0.2-0.5,0.5c0,0,0,0,0,0.2l6.2,26.7c0,0.2,0.2,0.5,0.5,0.5h2.9   c0.2,0,0.5-0.2,0.5-0.5l4.3-18.5l4.3,18.5c0,0.2,0.2,0.5,0.5,0.5h2.9c0.2,0,0.5-0.2,0.5-0.5l6.2-26.7   C167.3,21.4,167.1,21.2,166.6,21.2C166.8,21.2,166.8,21.2,166.6,21.2z"></path>
</g>
</svg>
