<?xml version="1.0" encoding="UTF-8"?>
<!-- Generator: Adobe Illustrator 28.2.0, SVG Export Plug-In . SVG Version: 6.00 Build 0)  -->
<svg xmlns="http://www.w3.org/2000/svg" xmlns:xlink="http://www.w3.org/1999/xlink" version="1.1" id="WPE-LOGO-H-White" x="0px" y="0px" viewBox="0 0 250 47.5" style="enable-background:new 0 0 250 47.5;" xml:space="preserve">
<g>
	<path id="registered" d="M244.4,15c0-1.5,1.3-2.8,2.8-2.8c1.5,0,2.8,1.3,2.8,2.8c0,1.5-1.3,2.8-2.8,2.8c-1.5,0-2.8-1.2-2.8-2.7   C244.4,15.1,244.4,15,244.4,15z M249.5,15c0-1.3-1-2.3-2.3-2.3c-1.3,0-2.3,1-2.3,2.3s1,2.3,2.3,2.3l0,0c1.2,0,2.3-0.9,2.3-2.2   C249.5,15.1,249.5,15.1,249.5,15z M246.3,16.6C246.2,16.6,246.2,16.6,246.3,16.6l-0.1-3c0-0.1,0-0.1,0.1-0.1h1.1   c0.5-0.1,1,0.3,1,0.8c0,0,0,0.1,0,0.1c0,0.4-0.3,0.8-0.7,0.8l0.7,1.2c0.1,0.1,0,0.2-0.1,0.2H248c-0.1,0-0.1-0.1-0.2-0.1l-0.7-1.2   h-0.6v1.1c0,0.1,0,0.1-0.1,0.1c0,0,0,0,0,0L246.3,16.6L246.3,16.6z M247.9,14.4c0-0.3-0.2-0.5-0.6-0.5h-0.7v0.9h0.7   C247.8,14.8,247.9,14.6,247.9,14.4z"></path>
	<path id="logotext" d="M80.3,36c-0.3,0-0.4-0.1-0.5-0.4L76,22.1h-0.1l-3.8,13.5C72,35.9,71.9,36,71.6,36h-4.5   c-0.3,0-0.4-0.1-0.5-0.4l-6.5-23.5c0-0.2,0-0.4,0.3-0.4h5.9c0.2,0,0.4,0.1,0.5,0.4l3.1,14.1h0.1l3.7-14.1c0.1-0.3,0.2-0.4,0.5-0.4   h3.6c0.3,0,0.4,0.1,0.5,0.4l3.9,14.1h0.1l3-14.1c0-0.2,0.2-0.4,0.5-0.4h5.9c0.2,0,0.3,0.2,0.3,0.4l-6.5,23.5   c-0.1,0.3-0.2,0.4-0.5,0.4L80.3,36L80.3,36z M96.5,36c-0.2,0-0.4-0.2-0.4-0.4V12.1c0-0.2,0.2-0.4,0.4-0.4h9.7c5.9,0,8.9,3.4,8.9,8   s-3.1,8.1-8.9,8.1h-3.5c-0.2,0-0.2,0.1-0.2,0.2v7.5c0,0.2-0.2,0.4-0.4,0.4L96.5,36L96.5,36z M108.9,19.9c0-1.7-1.1-2.7-3.1-2.7   h-3.2c-0.2,0-0.2,0.1-0.2,0.2v5c0,0.2,0.1,0.2,0.2,0.2h3.2c1.5,0.2,2.8-0.8,3.1-2.3C108.9,20.1,108.9,20,108.9,19.9L108.9,19.9z    M123.4,30c-0.6-2-0.8-4-0.7-6.1c-0.1-2,0.1-4.1,0.7-6.1c1.5-4.4,6.3-6.8,10.7-5.3c2.5,0.8,4.5,2.8,5.3,5.3   c0.5,1.8,0.8,3.8,0.7,5.7c0,0.3-0.2,0.5-0.6,0.5h-15.2c-0.2,0-0.3,0.2-0.3,0.4c-0.1,1.7,0.1,3.5,0.6,5.1c0.8,3.1,3.8,5.2,7,4.9   c2.7,0.1,5.3-1.1,6.9-3.3c0.1-0.2,0.3-0.3,0.5-0.2c0,0,0.1,0.1,0.1,0.1l0.3,0.3c0.2,0.1,0.3,0.3,0.2,0.5c0,0-0.1,0.1-0.1,0.1   c-1.8,2.5-4.8,3.9-7.8,3.8C127.9,36.2,124.4,33.7,123.4,30L123.4,30z M138.5,22.7c0.1,0,0.3-0.1,0.3-0.2c0,0,0,0,0-0.1   c0-1.4-0.2-2.7-0.6-4c-0.8-3-3.6-5.1-6.7-4.9c-3.1-0.2-6,1.9-6.7,4.9c-0.4,1.3-0.6,2.7-0.6,4c0,0.1,0.1,0.3,0.2,0.3c0,0,0,0,0.1,0   L138.5,22.7z M161.7,35.4c-0.2,0-0.5-0.2-0.5-0.4c0,0,0,0,0-0.1V21.3c0-5.4-2.2-7.7-6.6-7.7c-3.7-0.2-6.8,2.7-7,6.4   c0,0.2,0,0.4,0,0.6V35c0,0.2-0.2,0.5-0.4,0.5c0,0,0,0-0.1,0h-0.5c-0.2,0-0.5-0.2-0.5-0.4c0,0,0,0,0-0.1V13.2c0-0.2,0.2-0.5,0.4-0.5   c0,0,0,0,0.1,0h0.5c0.2,0,0.5,0.2,0.5,0.4c0,0,0,0,0,0.1v3.2h0.1c1.2-2.7,4-4.4,7-4.2c5.1,0,8,2.9,8,8.8v14c0,0.2-0.2,0.5-0.4,0.5   c0,0,0,0-0.1,0H161.7z M169.6,41.3c-0.2-0.3-0.2-0.6,0.1-0.7l0.4-0.3c0.3-0.2,0.5-0.1,0.7,0.2c1.5,1.8,3.7,2.8,6.1,2.7   c4.3,0,7.1-2.1,7.1-7.7v-3.8h-0.1c-1.1,2.5-3.1,4.3-7.1,4.3c-3.5,0.2-6.6-2.1-7.6-5.4c-0.6-2.1-0.9-4.3-0.7-6.4   c-0.1-2.2,0.2-4.3,0.7-6.4c1-3.3,4.1-5.6,7.5-5.4c4,0,6,1.8,7.1,4.3h0.1v-3.3c0-0.2,0.2-0.5,0.4-0.5c0,0,0,0,0.1,0h0.5   c0.2,0,0.5,0.2,0.5,0.4c0,0,0,0,0,0.1v22.3c0,6.2-3.4,9-8.6,9C173.9,44.7,171.3,43.5,169.6,41.3z M183.2,30c0.5-1.9,0.8-4,0.7-6   c0.1-2-0.1-4-0.7-6c-0.8-2.8-3.4-4.7-6.3-4.6c-2.9-0.2-5.5,1.7-6.2,4.5c-0.6,1.9-0.8,4-0.7,6c-0.1,2,0.2,4,0.7,6   c0.8,2.8,3.4,4.6,6.2,4.5C179.8,34.8,182.5,32.9,183.2,30L183.2,30z M193.1,5.7c-0.2,0-0.5-0.2-0.5-0.4c0,0,0,0,0-0.1V3.4   c0-0.2,0.2-0.5,0.4-0.5c0,0,0,0,0.1,0h1.1c0.2,0,0.5,0.2,0.5,0.4c0,0,0,0,0,0.1v2c0,0.2-0.2,0.5-0.4,0.5c0,0,0,0-0.1,0L193.1,5.7   L193.1,5.7z M193.4,35.4c-0.2,0-0.5-0.2-0.5-0.4c0,0,0,0,0-0.1V13.2c0-0.2,0.2-0.5,0.4-0.5c0,0,0,0,0.1,0h0.5   c0.2,0,0.5,0.2,0.5,0.4c0,0,0,0,0,0.1V35c0,0.2-0.2,0.5-0.4,0.5c0,0,0,0-0.1,0H193.4z M217.6,35.4c-0.2,0-0.5-0.2-0.5-0.4   c0,0,0,0,0-0.1V21.3c0-5.4-2.2-7.7-6.6-7.7c-3.7-0.2-6.8,2.7-7,6.4c0,0.2,0,0.4,0,0.6V35c0,0.2-0.2,0.5-0.4,0.5c0,0,0,0-0.1,0h-0.5   c-0.2,0-0.5-0.2-0.5-0.4c0,0,0,0,0-0.1V13.2c0-0.2,0.2-0.5,0.4-0.5c0,0,0,0,0.1,0h0.5c0.2,0,0.5,0.2,0.5,0.4c0,0,0,0,0,0.1v3.2h0.1   c1.2-2.7,4-4.4,7-4.2c5.1,0,8,2.9,8,8.8v14c0,0.2-0.2,0.5-0.4,0.5c0,0,0,0-0.1,0H217.6z M224.9,30c-0.6-2-0.8-4-0.7-6.1   c-0.1-2,0.1-4.1,0.7-6.1c1.5-4.4,6.3-6.8,10.7-5.3c2.5,0.8,4.5,2.8,5.3,5.3c0.5,1.8,0.8,3.8,0.7,5.7c0,0.3-0.2,0.5-0.6,0.5h-15.2   c-0.2,0-0.3,0.2-0.3,0.4c-0.1,1.7,0.1,3.5,0.6,5.1c0.8,3.1,3.8,5.2,7,4.9c2.7,0.1,5.3-1.1,6.9-3.3c0.1-0.2,0.3-0.3,0.5-0.2   c0,0,0.1,0.1,0.1,0.1l0.3,0.3c0.2,0.1,0.3,0.3,0.2,0.5c0,0-0.1,0.1-0.1,0.1c-1.8,2.5-4.8,3.9-7.8,3.8C229,35.9,226.1,33.9,224.9,30   L224.9,30z M239.9,22.7c0.1,0,0.3-0.1,0.3-0.2c0,0,0,0,0-0.1c0-1.4-0.2-2.7-0.6-4c-0.8-3-3.6-5.1-6.7-4.9c-3.1-0.2-6,1.9-6.7,4.9   c-0.4,1.3-0.6,2.7-0.6,4c0,0.1,0.1,0.3,0.2,0.3c0,0,0,0,0.1,0L239.9,22.7z"></path>
	<path id="logomark" d="M16.1,47.5h15.3V36l-3.7-3.7h-7.9L16.1,36L16.1,47.5z M35.9,16.1l-3.6,3.6v8l3.6,3.6h11.7V16.1L35.9,16.1z    M31.4,0H16.1v11.7l3.6,3.6h7.9l3.7-3.6L31.4,0z M47.5,47.5V36l-3.6-3.7H32.3v15.3L47.5,47.5z M3.6,0L0,3.6v11.7h15.3V0H3.6z    M32.3,0v11.7l3.6,3.6h11.7V0H32.3z M23.8,26c-1.2,0-2.1-1-2.1-2.1s1-2.1,2.1-2.1c1.2,0,2.1,1,2.1,2.1C25.9,25,25,26,23.8,26z    M15.3,16.1H0v15.3h11.6l3.7-3.6L15.3,16.1z M15.3,36l-3.7-3.7H0v15.3h11.6l3.7-3.6L15.3,36z"></path>
</g>
</svg>
